<svg xmlns="http://www.w3.org/2000/svg" width="121.042" height="46.91" viewBox="0 0 121.042 46.91"><defs><style>.a{fill:#7ed321;}</style></defs><g transform="translate(-565.472 -866.248)"><path class="a" d="M707.39,866.248h5.094L706.814,898.4a4.392,4.392,0,0,1-4.325,3.629H697.4l5.669-32.152A4.392,4.392,0,0,1,707.39,866.248Z" transform="translate(-90.77)"/><path class="a" d="M662.7,866.248h5.094L662.121,898.4a4.391,4.391,0,0,1-4.325,3.629H652.7l5.669-32.152A4.392,4.392,0,0,1,662.7,866.248Z" transform="translate(-60.019)"/><path class="a" d="M754.579,900.856a3.653,3.653,0,0,1,3.65,3.811l-.246,5.679c-.09,2.555-.18,5.262-.355,8.027h.126c.9-2.765,2.039-5.592,2.939-7.953l2.781-7.25a3.607,3.607,0,0,1,3.367-2.315h4.337l.255,9.229c.065,2.817.153,5.524.053,8.289h.1c.742-2.741,1.6-5.568,2.531-8.343l2.2-6.666a3.653,3.653,0,0,1,3.469-2.509h5.928l-11.572,24.985h-8.061l-.336-7.368c-.107-2.288-.1-4.625.034-7.709h-.1a70.45,70.45,0,0,1-2.692,7.656l-2.2,5.192a3.653,3.653,0,0,1-3.365,2.23h-5.639l-2.46-24.985Z" transform="translate(-126.501 -23.812)"/><path class="a" d="M873.318,900.856a3.473,3.473,0,0,1,3.467,3.27l.487,8.319c.072,1.349.145,2.995.185,4.238h.155c.484-1.272,1.035-2.918,1.491-4.19l3.072-8.6a4.568,4.568,0,0,1,4.3-3.032h5.916l-8.454,17.309c-4.439,8.544-7.346,12.487-10.47,15.059a16.853,16.853,0,0,1-8.323,3.745l-.438-4.781a3.272,3.272,0,0,1,2.032-3.341c.354-.142.713-.3,1.072-.468a9.339,9.339,0,0,0,3.082-2.331,2.415,2.415,0,0,0,.628-1.1,2.783,2.783,0,0,0-.1-1.207l-4.487-22.89Z" transform="translate(-205.879 -23.812)"/><path class="a" d="M588.269,921.26a2.7,2.7,0,0,1-1.876,2.8,29.633,29.633,0,0,1-8.591,1.188c-7.986,0-12.33-3.817-12.33-10.731,0-7.584,5.958-15.231,16.206-15.231,5.655,0,10.069,2.844,10.083,7.925,0,6.218-6.179,8.785-17.393,8.481a3.062,3.062,0,0,0,.993,1.631,7.717,7.717,0,0,0,4.827,1.289,19.261,19.261,0,0,0,7.738-1.517Zm-7.708-15.739a5.1,5.1,0,0,0-5.31,3.943c5.724.051,7.737-.695,7.737-2.287C582.988,906.28,582.106,905.521,580.561,905.521Z" transform="translate(0 -22.735)"/></g></svg>