<?xml version="1.0" encoding="utf-8"?>
<!-- Generator: Adobe Illustrator 24.3.0, SVG Export Plug-In . SVG Version: 6.00 Build 0)  -->
<svg version="1.1" id="Layer_1" xmlns="http://www.w3.org/2000/svg" xmlns:xlink="http://www.w3.org/1999/xlink" x="0px" y="0px"
	 viewBox="0 0 417 411.82" style="enable-background:new 0 0 417 411.82;" xml:space="preserve">
<style type="text/css">
	.st0{fill:#7ED321;}
</style>
<path class="st0" d="M361.62,348.49c1.64,19.94-10.66,38.49-29.75,44.48c-49.03,15.37-100.53,18.85-136.27,18.85
	C68.92,411.82,0,351.27,0,241.6C0,121.3,94.51,0,257.07,0C346.77,0,416.78,45.11,417,125.71c0,98.64-98.01,139.35-275.88,134.53
	c1.97,8.82,7.22,18.65,15.75,25.87c16.41,13.23,42.66,20.45,76.57,20.45c44.19,0,85.33-7.82,122.74-24.06L361.62,348.49z
	 M239.35,98.85c-53.82,0-79.85,36.89-84.23,62.55c90.79,0.8,122.74-11.03,122.74-36.29C277.85,110.87,263.85,98.85,239.35,98.85z"/>
</svg>
